<svg width="241" height="234" viewBox="0 0 241 234" fill="none" xmlns="http://www.w3.org/2000/svg">
<g clip-path="url(#clip0_233_1480)">
<path d="M42.94 1.88608e-05H197.94C203.523 -0.00524284 209.052 1.09046 214.21 3.22442C219.369 5.35838 224.056 8.48871 228.004 12.4362C231.951 16.3838 235.082 21.071 237.216 26.2297C239.35 31.3885 240.445 36.9174 240.44 42.5V191.5C240.445 197.083 239.35 202.612 237.216 207.77C235.082 212.929 231.951 217.616 228.004 221.564C224.056 225.511 219.369 228.642 214.21 230.776C209.052 232.91 203.523 234.005 197.94 234H42.94C37.3573 234.005 31.8284 232.91 26.6697 230.776C21.511 228.642 16.8237 225.511 12.8762 221.564C8.92865 217.616 5.79832 212.929 3.66436 207.77C1.5304 202.612 0.434699 197.083 0.43996 191.5V42.5C0.434699 36.9174 1.5304 31.3885 3.66436 26.2297C5.79832 21.071 8.92865 16.3838 12.8762 12.4362C16.8237 8.48871 21.511 5.35838 26.6697 3.22442C31.8284 1.09046 37.3573 -0.00524284 42.94 1.88608e-05Z" fill="#00005B"/>
<path d="M96.8399 140H59.6399L52.0399 163.6C51.955 164.028 51.713 164.409 51.3614 164.668C51.0099 164.927 50.5742 165.046 50.1399 165H31.3399C30.2399 165 29.9399 164.4 30.2399 163.2L62.4399 70.9C62.7399 69.9 63.0399 69 63.4399 67.8C63.8424 65.6568 64.0433 63.4806 64.0399 61.2999C64.01 61.0495 64.0758 60.797 64.2241 60.593C64.3725 60.389 64.5924 60.2486 64.8399 60.2H90.7399C91.4399 60.2 91.9399 60.5 92.0399 61L128.54 163.5C128.84 164.6 128.54 165.1 127.54 165.1H106.64C106.286 165.134 105.932 165.042 105.64 164.841C105.347 164.64 105.135 164.342 105.04 164L96.8399 140ZM65.4399 120.1H90.8399C90.2399 118 89.4399 115.5 88.5399 112.9C87.6399 110.3 86.7399 107.3 85.8399 104.3C84.9399 101.3 83.9399 98.1999 82.9399 95.0999C81.9399 91.9999 81.0399 89.0999 80.2399 86.1999C79.4399 83.2999 78.7399 80.8 78.0399 78.4H77.8399C76.9412 82.7584 75.8062 87.0647 74.4399 91.3C72.9399 96.1 71.4399 101.1 69.8399 106.1C68.5399 111.2 66.9399 115.9 65.4399 120.1Z" fill="#9999FF"/>
<path d="M187.84 130.8H156.14C156.518 133.956 157.576 136.992 159.24 139.7C161.007 142.395 163.553 144.488 166.54 145.7C170.582 147.429 174.945 148.281 179.34 148.2C182.832 148.136 186.312 147.768 189.74 147.1C192.79 146.701 195.779 145.928 198.64 144.8C199.14 144.4 199.44 144.6 199.44 145.6V160.9C199.422 161.307 199.355 161.71 199.24 162.1C199.059 162.381 198.821 162.619 198.54 162.8C195.342 164.204 191.983 165.212 188.54 165.8C183.862 166.699 179.102 167.102 174.34 167C166.74 167 160.34 165.8 155.14 163.5C150.247 161.376 145.928 158.12 142.54 154C139.374 150.147 137.026 145.69 135.64 140.9C132.71 130.923 132.849 120.296 136.04 110.4C137.635 105.393 140.181 100.741 143.54 96.6999C146.847 92.7038 150.973 89.4642 155.64 87.1999C160.34 84.8999 165.94 84.0999 172.34 84.0999C177.672 83.9762 182.965 85.0349 187.84 87.1999C191.937 88.976 195.54 91.7215 198.34 95.1999C200.998 98.6154 203.029 102.475 204.34 106.6C205.612 110.541 206.253 114.659 206.24 118.8C206.24 121.2 206.14 123.3 206.04 125.2C205.94 127.1 205.74 128.5 205.64 129.4C205.596 129.746 205.432 130.066 205.176 130.304C204.92 130.541 204.589 130.682 204.24 130.7C203.64 130.7 202.54 130.8 200.94 130.9C199.015 131.119 197.078 131.219 195.14 131.2C192.84 131.2 190.44 130.8 187.84 130.8ZM156.14 116.2H177.24C179.84 116.2 181.74 116.2 182.94 116.1C183.762 116.031 184.553 115.756 185.24 115.3V114.3C185.244 113.042 185.041 111.792 184.64 110.6C183.765 107.864 182.023 105.486 179.678 103.827C177.333 102.167 174.512 101.315 171.64 101.4C168.926 101.248 166.226 101.884 163.866 103.233C161.506 104.582 159.587 106.585 158.34 109C157.173 111.246 156.428 113.686 156.14 116.2Z" fill="#9999FF"/>
</g>
<defs>
<clipPath id="clip0_233_1480">
<rect width="240" height="234" fill="white" transform="translate(0.439941)"/>
</clipPath>
</defs>
</svg>
