<svg width="241" height="234" viewBox="0 0 241 234" fill="none" xmlns="http://www.w3.org/2000/svg">
<g clip-path="url(#clip0_233_1592)">
<path d="M42.94 1.88608e-05H197.94C203.523 -0.00524284 209.052 1.09046 214.21 3.22442C219.369 5.35838 224.056 8.48871 228.004 12.4362C231.951 16.3838 235.082 21.071 237.216 26.2297C239.35 31.3885 240.445 36.9174 240.44 42.5V191.5C240.445 197.083 239.35 202.612 237.216 207.77C235.082 212.929 231.951 217.616 228.004 221.564C224.056 225.511 219.369 228.642 214.21 230.776C209.052 232.91 203.523 234.005 197.94 234H42.94C37.3573 234.005 31.8284 232.91 26.6697 230.776C21.511 228.642 16.8237 225.511 12.8762 221.564C8.92865 217.616 5.79832 212.929 3.66436 207.77C1.5304 202.612 0.434699 197.083 0.43996 191.5V42.5C0.434699 36.9174 1.5304 31.3885 3.66436 26.2297C5.79832 21.071 8.92865 16.3838 12.8762 12.4362C16.8237 8.48871 21.511 5.35838 26.6697 3.22442C31.8284 1.09046 37.3573 -0.00524284 42.94 1.88608e-05Z" fill="#330000"/>
<path d="M116.74 140.4H79.5398L71.9398 163.9C71.8549 164.328 71.6129 164.709 71.2613 164.969C70.9098 165.228 70.4741 165.346 70.0398 165.3H51.2398C50.1398 165.3 49.8398 164.7 50.1398 163.5L82.3398 70.8C82.6398 69.8 82.9398 68.7 83.3398 67.5C83.7423 65.3568 83.9432 63.1807 83.9398 61C83.9099 60.7496 83.9757 60.4971 84.124 60.2931C84.2724 60.0891 84.4923 59.9487 84.7398 59.9H110.64C111.44 59.9 111.84 60.2 111.94 60.7L148.44 163.7C148.74 164.8 148.44 165.3 147.44 165.3H126.54C126.186 165.334 125.832 165.242 125.54 165.041C125.247 164.84 125.035 164.542 124.94 164.2L116.74 140.4ZM85.3398 120.1H110.74C110.14 118 109.34 115.5 108.44 112.9C107.54 110.3 106.64 107.3 105.74 104.3C104.84 101.3 103.84 98.2 102.84 95.1C101.84 92 100.94 89.1 100.14 86.2C99.3398 83.3 98.6398 80.8 97.9398 78.4H97.7398C96.8411 82.7585 95.7061 87.0648 94.3398 91.3C92.8398 96.1 91.3398 101.1 89.7398 106.1C88.3398 111.2 86.8398 115.9 85.3398 120.1Z" fill="#FF9A00"/>
<path d="M170.24 77.0001C168.598 77.036 166.966 76.745 165.438 76.1441C163.91 75.5433 162.517 74.6445 161.34 73.5001C159.049 70.995 157.828 67.693 157.94 64.3001C157.881 62.6469 158.171 60.9998 158.791 59.4663C159.411 57.9328 160.348 56.5473 161.54 55.4001C163.943 53.1282 167.132 51.8741 170.44 51.9001C174.34 51.9001 177.34 53.1001 179.54 55.4001C181.755 57.8248 182.939 61.0172 182.84 64.3001C182.901 65.9896 182.622 67.6743 182.021 69.2544C181.42 70.8346 180.508 72.2783 179.34 73.5001C178.161 74.7003 176.739 75.6338 175.169 76.2375C173.6 76.8413 171.919 77.1013 170.24 77.0001ZM159.04 163.8V86.8001C159.04 85.8001 159.44 85.4001 160.34 85.4001H180.14C181.04 85.4001 181.44 85.9001 181.44 86.8001V163.8C181.44 164.9 181.04 165.4 180.14 165.4H160.54C160.329 165.417 160.118 165.387 159.921 165.311C159.725 165.235 159.547 165.116 159.403 164.962C159.259 164.808 159.151 164.624 159.088 164.423C159.025 164.222 159.009 164.009 159.04 163.8Z" fill="#FF9A00"/>
</g>
<defs>
<clipPath id="clip0_233_1592">
<rect width="240" height="234" fill="white" transform="translate(0.439941)"/>
</clipPath>
</defs>
</svg>
