<svg width="241" height="234" viewBox="0 0 241 234" fill="none" xmlns="http://www.w3.org/2000/svg">
<g clip-path="url(#clip0_233_1689)">
<path d="M42.94 1.88608e-05H197.94C203.523 -0.00524284 209.052 1.09046 214.21 3.22442C219.369 5.35838 224.056 8.48871 228.004 12.4362C231.951 16.3838 235.082 21.071 237.216 26.2297C239.35 31.3885 240.445 36.9174 240.44 42.5V191.5C240.445 197.083 239.35 202.612 237.216 207.77C235.082 212.929 231.951 217.616 228.004 221.564C224.056 225.511 219.369 228.642 214.21 230.776C209.052 232.91 203.523 234.005 197.94 234H42.94C37.3573 234.005 31.8284 232.91 26.6697 230.776C21.511 228.642 16.8237 225.511 12.8762 221.564C8.92865 217.616 5.79832 212.929 3.66436 207.77C1.5304 202.612 0.434699 197.083 0.43996 191.5V42.5C0.434699 36.9174 1.5304 31.3885 3.66436 26.2297C5.79832 21.071 8.92865 16.3838 12.8762 12.4362C16.8237 8.48871 21.511 5.35838 26.6697 3.22442C31.8284 1.09046 37.3573 -0.00524284 42.94 1.88608e-05Z" fill="#001E36"/>
<path d="M54.4399 164.1V61.2C54.4399 60.5 54.7399 60.1 55.4399 60.1C57.1399 60.1 58.7399 60.1 61.0399 60C63.3399 59.9 65.9399 59.9 68.6399 59.8C71.3399 59.7 74.2399 59.7 77.3399 59.6C80.4399 59.5 83.4399 59.5 86.4399 59.5C94.6399 59.5 101.44 60.5 107.04 62.6C112.06 64.3048 116.637 67.1059 120.44 70.8C123.662 74.0328 126.152 77.9207 127.74 82.2C129.254 86.3674 130.032 90.7662 130.04 95.2C130.04 103.8 128.04 110.9 124.04 116.5C120.021 122.092 114.411 126.344 107.94 128.7C101.14 131.2 93.6399 132.1 85.4399 132.1C83.0399 132.1 81.4399 132.1 80.4399 132C79.4399 131.9 78.0399 131.9 76.1399 131.9V164C76.1623 164.165 76.1513 164.332 76.1077 164.492C76.0641 164.652 75.9888 164.802 75.8862 164.933C75.7836 165.063 75.6559 165.172 75.5105 165.252C75.3651 165.333 75.2051 165.383 75.0399 165.4H55.6399C54.8399 165.4 54.4399 165 54.4399 164.1ZM76.2399 79.4V113C77.6399 113.1 78.9399 113.2 80.1399 113.2H85.4399C89.3438 113.205 93.2242 112.597 96.9399 111.4C100.128 110.463 102.976 108.622 105.14 106.1C107.24 103.6 108.24 100.2 108.24 95.8C108.334 92.6751 107.536 89.588 105.94 86.9C104.273 84.3036 101.82 82.3068 98.9399 81.2C95.1858 79.7297 91.1689 79.0488 87.1399 79.2C84.5399 79.2 82.2399 79.2 80.3399 79.3C78.973 79.2106 77.6009 79.2441 76.2399 79.4Z" fill="#31A8FF"/>
<path d="M192.44 106.9C189.421 105.31 186.187 104.165 182.84 103.5C179.164 102.668 175.409 102.232 171.64 102.2C169.616 102.13 167.593 102.366 165.64 102.9C164.394 103.159 163.29 103.872 162.54 104.9C162.035 105.711 161.758 106.644 161.74 107.6C161.786 108.551 162.137 109.463 162.74 110.2C163.688 111.312 164.842 112.229 166.14 112.9C168.44 114.1 170.84 115.2 173.24 116.2C178.643 118.019 183.812 120.469 188.64 123.5C191.924 125.565 194.64 128.418 196.54 131.8C198.147 134.99 198.937 138.529 198.84 142.1C198.921 146.827 197.561 151.466 194.94 155.4C192.151 159.392 188.259 162.485 183.74 164.3C178.84 166.4 172.84 167.5 165.64 167.5C161.075 167.518 156.519 167.083 152.04 166.2C148.513 165.591 145.083 164.514 141.84 163C141.491 162.825 141.201 162.552 141.006 162.214C140.811 161.877 140.718 161.49 140.74 161.1V143.7C140.731 143.529 140.763 143.359 140.833 143.202C140.902 143.046 141.007 142.908 141.14 142.8C141.281 142.718 141.444 142.683 141.606 142.701C141.769 142.719 141.921 142.789 142.04 142.9C145.892 145.171 150.076 146.824 154.44 147.8C158.293 148.803 162.259 149.307 166.24 149.3C170.04 149.3 172.74 148.8 174.54 147.9C175.343 147.529 176.023 146.937 176.501 146.193C176.98 145.449 177.236 144.584 177.24 143.7C177.24 142.3 176.44 141 174.84 139.7C173.24 138.4 169.94 136.9 165.04 135C160.013 133.229 155.239 130.808 150.84 127.8C147.706 125.567 145.11 122.663 143.24 119.3C141.644 116.142 140.854 112.638 140.94 109.1C140.955 104.833 142.13 100.65 144.34 97C146.88 92.9856 150.527 89.7908 154.84 87.8C159.54 85.4 165.44 84.3 172.54 84.3C176.69 84.3012 180.834 84.602 184.94 85.2C187.892 85.5996 190.782 86.3724 193.54 87.5C193.979 87.6558 194.339 87.9795 194.54 88.4C194.655 88.7904 194.722 89.1934 194.74 89.6V105.9C194.742 106.094 194.697 106.286 194.61 106.46C194.523 106.634 194.396 106.785 194.24 106.9C193.658 107.109 193.022 107.109 192.44 106.9Z" fill="#31A8FF"/>
</g>
<defs>
<clipPath id="clip0_233_1689">
<rect width="240" height="234" fill="white" transform="translate(0.439941)"/>
</clipPath>
</defs>
</svg>
