<svg width="241" height="234" viewBox="0 0 241 234" fill="none" xmlns="http://www.w3.org/2000/svg">
<g clip-path="url(#clip0_233_1746)">
<path d="M42.94 1.88608e-05H197.94C203.523 -0.00524284 209.052 1.09046 214.21 3.22442C219.369 5.35838 224.056 8.48871 228.004 12.4362C231.951 16.3838 235.082 21.071 237.216 26.2297C239.35 31.3885 240.445 36.9174 240.44 42.5V191.5C240.445 197.083 239.35 202.612 237.216 207.77C235.082 212.929 231.951 217.616 228.004 221.564C224.056 225.511 219.369 228.642 214.21 230.776C209.052 232.91 203.523 234.005 197.94 234H42.94C37.3573 234.005 31.8284 232.91 26.6697 230.776C21.511 228.642 16.8237 225.511 12.8762 221.564C8.92865 217.616 5.79832 212.929 3.66436 207.77C1.5304 202.612 0.434699 197.083 0.43996 191.5V42.5C0.434699 36.9174 1.5304 31.3885 3.66436 26.2297C5.79832 21.071 8.92865 16.3838 12.8762 12.4362C16.8237 8.48871 21.511 5.35838 26.6697 3.22442C31.8284 1.09046 37.3573 -0.00524284 42.94 1.88608e-05Z" fill="#00005B"/>
<path d="M57.4399 164.1V61.2C57.4399 60.5 57.7399 60.1 58.4399 60.1C60.1399 60.1 61.7399 60.1 64.0399 60C66.3399 59.9 68.9399 59.9 71.6399 59.8C74.3399 59.7 77.2399 59.7 80.3399 59.6C83.4399 59.5 86.4399 59.5 89.4399 59.5C97.6399 59.5 104.44 60.5 110.04 62.6C115.06 64.3048 119.637 67.1059 123.44 70.8C126.662 74.0328 129.152 77.9207 130.74 82.2C132.254 86.3674 133.032 90.7662 133.04 95.2C133.04 103.8 131.04 110.9 127.04 116.5C123.021 122.092 117.411 126.344 110.94 128.7C104.14 131.2 96.6399 132.1 88.4399 132.1C86.0399 132.1 84.4399 132.1 83.4399 132C82.4399 131.9 81.0399 131.9 79.1399 131.9V164C79.1623 164.165 79.1513 164.332 79.1077 164.492C79.0641 164.652 78.9888 164.802 78.8862 164.933C78.7836 165.063 78.6559 165.172 78.5105 165.252C78.3651 165.333 78.2051 165.383 78.0399 165.4H58.6399C57.8399 165.4 57.4399 165 57.4399 164.1ZM79.2399 79.4V113C80.6399 113.1 81.9399 113.2 83.1399 113.2H88.4399C92.3438 113.205 96.2242 112.597 99.9399 111.4C103.128 110.463 105.976 108.622 108.14 106.1C110.24 103.6 111.24 100.2 111.24 95.8C111.334 92.6751 110.536 89.588 108.94 86.9C107.273 84.3036 104.82 82.3068 101.94 81.2C98.1858 79.7297 94.1689 79.0488 90.1399 79.2C87.5399 79.2 85.2399 79.2 83.3399 79.3C81.973 79.2106 80.6009 79.2441 79.2399 79.4Z" fill="#9999FF"/>
<path d="M147.04 85.2H164.54C165.014 85.2115 165.472 85.3723 165.849 85.6596C166.226 85.947 166.503 86.3461 166.64 86.8C166.945 87.6046 167.147 88.4446 167.24 89.3C167.44 90.3 167.64 91.4 167.74 92.4C167.84 93.4 167.94 94.7 167.94 96C170.942 92.4947 174.571 89.5785 178.64 87.4C183.288 84.8179 188.523 83.4749 193.84 83.5C194.004 83.4777 194.172 83.4887 194.332 83.5322C194.492 83.5758 194.642 83.6511 194.773 83.7537C194.903 83.8563 195.012 83.9841 195.092 84.1295C195.172 84.2749 195.223 84.4349 195.24 84.6V104.5C195.24 105.3 194.74 105.6 193.64 105.6C190.012 105.481 186.384 105.817 182.84 106.6C179.951 107.196 177.135 108.102 174.44 109.3C172.505 110.172 170.77 111.432 169.34 113V164C169.34 165 168.94 165.4 168.04 165.4H148.34C148.155 165.431 147.967 165.424 147.785 165.38C147.603 165.336 147.432 165.255 147.283 165.143C147.133 165.031 147.008 164.89 146.914 164.727C146.821 164.565 146.762 164.386 146.74 164.2V108.4C146.74 106 146.74 103.5 146.64 100.9C146.54 98.3 146.54 95.7 146.44 93.1C146.44 90.8 146.24 88.6 146.04 86.3C146.013 86.1818 146.01 86.0595 146.031 85.9402C146.052 85.8209 146.096 85.7068 146.161 85.6046C146.226 85.5024 146.311 85.4141 146.41 85.3446C146.51 85.2752 146.622 85.2261 146.74 85.2C146.74 85.1 146.94 85.1 147.04 85.2Z" fill="#9999FF"/>
</g>
<defs>
<clipPath id="clip0_233_1746">
<rect width="240" height="234" fill="white" transform="translate(0.439941)"/>
</clipPath>
</defs>
</svg>
